# xmcd
#
# Track frame offsets:
# 150
# 15616
# 30787
# 47844
# 66735
# 82638
# 96512
# 120411
# 141077
# 156802
# 175101
# 196286
# 214734
# 234614
# 249834
# 268390
# 283055
# 304150
# 324589
#
# Disc length: 4629 seconds
#
#
# Revision: 0
# Processed by: cddbd v1.5.1PL0 Copyright (c) Steve Scherf et al.
# Submitted via: FreeRIP 2.80 
#
DISCID=09121313
DTITLE=Variados - Marisa
DYEAR=2003
DGENRE=Pop
TTITLE0=Festa no Gueto
TTITLE1=Terere
TTITLE2=Sorte Grande
TTITLE3=Se eu nao te amasse tanto assim
TTITLE4=Vem meu amor
TTITLE5=Colecao
TTITLE6=Facil
TTITLE7=So Hoje
TTITLE8=O Vento
TTITLE9=Na Moral
TTITLE10=Mesmo que seja eu
TTITLE11=Vou te procurar
TTITLE12=Distancia
TTITLE13=Big Brother
TTITLE14=Alvorada Voraz
TTITLE15=Natasha
TTITLE16=O Passageiro
TTITLE17=Quatro vezes voce
TTITLE18=A sua maneira
EXTD=
EXTT0=
EXTT1=
EXTT2=
EXTT3=
EXTT4=
EXTT5=
EXTT6=
EXTT7=
EXTT8=
EXTT9=
EXTT10=
EXTT11=
EXTT12=
EXTT13=
EXTT14=
EXTT15=
EXTT16=
EXTT17=
EXTT18=
PLAYORDER=
